<svg width="137" height="36" viewBox="0 0 137 36" fill="none" xmlns="http://www.w3.org/2000/svg">
<rect width="36" height="36" rx="6" fill="#8BFF8C"/>
<path d="M10.1692 29V7.00727H18.4165C20.106 7.00727 21.5235 7.32227 22.669 7.95227C23.8216 8.58227 24.6914 9.44852 25.2785 10.551C25.8727 11.6464 26.1698 12.892 26.1698 14.2881C26.1698 15.6984 25.8727 16.9512 25.2785 18.0466C24.6843 19.1419 23.8073 20.0046 22.6475 20.6346C21.4877 21.2574 20.0595 21.5689 18.3628 21.5689H12.8968V18.2936H17.8259C18.8138 18.2936 19.6228 18.1218 20.2528 17.7781C20.8828 17.4345 21.3481 16.962 21.6488 16.3606C21.9566 15.7593 22.1106 15.0684 22.1106 14.2881C22.1106 13.5077 21.9566 12.8205 21.6488 12.2263C21.3481 11.632 20.8792 11.1703 20.242 10.841C19.612 10.5045 18.7995 10.3363 17.8044 10.3363H14.1532V29H10.1692Z" fill="white"/>
<path d="M45.517 27V9.54545H52.4034C53.7273 9.54545 54.8551 9.7983 55.7869 10.304C56.7188 10.804 57.429 11.5 57.9176 12.392C58.4119 13.2784 58.6591 14.3011 58.6591 15.4602C58.6591 16.6193 58.4091 17.642 57.9091 18.5284C57.4091 19.4148 56.6847 20.1051 55.7358 20.5994C54.7926 21.0937 53.6506 21.3409 52.3097 21.3409H47.9205V18.3835H51.7131C52.4233 18.3835 53.0085 18.2614 53.4688 18.017C53.9347 17.767 54.2813 17.4233 54.5085 16.9858C54.7415 16.5426 54.858 16.0341 54.858 15.4602C54.858 14.8807 54.7415 14.375 54.5085 13.9432C54.2813 13.5057 53.9347 13.1676 53.4688 12.929C53.0028 12.6847 52.4119 12.5625 51.696 12.5625H49.2074V27H45.517ZM69.3828 21.4261V13.9091H73.0135V27H69.5277V24.6222H69.3913C69.0959 25.3892 68.6044 26.0057 67.9169 26.4716C67.2351 26.9375 66.4027 27.1705 65.4197 27.1705C64.5447 27.1705 63.7749 26.9716 63.1101 26.5739C62.4453 26.1761 61.9254 25.6108 61.5504 24.8778C61.1811 24.1449 60.9936 23.267 60.9879 22.2443V13.9091H64.6186V21.5966C64.6243 22.3693 64.8317 22.9801 65.2408 23.429C65.6499 23.8778 66.1982 24.1023 66.8857 24.1023C67.3232 24.1023 67.7322 24.0028 68.1129 23.804C68.4936 23.5994 68.8004 23.2983 69.0334 22.9006C69.272 22.5028 69.3885 22.0114 69.3828 21.4261ZM79.5483 19.4318V27H75.9176V13.9091H79.3778V16.2188H79.5312C79.821 15.4574 80.3068 14.8551 80.9886 14.4119C81.6705 13.9631 82.4972 13.7386 83.4688 13.7386C84.3778 13.7386 85.1705 13.9375 85.8466 14.3352C86.5227 14.733 87.0483 15.3011 87.4233 16.0398C87.7983 16.7727 87.9858 17.6477 87.9858 18.6648V27H84.3551V19.3125C84.3608 18.5114 84.1563 17.8864 83.7415 17.4375C83.3267 16.983 82.7557 16.7557 82.0284 16.7557C81.5398 16.7557 81.108 16.8608 80.733 17.071C80.3636 17.2812 80.0739 17.5881 79.8636 17.9915C79.6591 18.3892 79.554 18.8693 79.5483 19.4318ZM97.8104 13.9091V16.6364H89.9268V13.9091H97.8104ZM91.7166 10.7727H95.3473V22.9773C95.3473 23.3125 95.3984 23.5739 95.5007 23.7614C95.603 23.9432 95.745 24.071 95.9268 24.1449C96.1143 24.2187 96.3303 24.2557 96.5746 24.2557C96.745 24.2557 96.9155 24.2415 97.0859 24.2131C97.2564 24.179 97.3871 24.1534 97.478 24.1364L98.049 26.8381C97.8672 26.8949 97.6115 26.9602 97.282 27.0341C96.9524 27.1136 96.5518 27.1619 96.0803 27.179C95.2053 27.2131 94.4382 27.0966 93.7791 26.8295C93.1257 26.5625 92.6172 26.1477 92.2536 25.5852C91.8899 25.0227 91.7109 24.3125 91.7166 23.4545V10.7727Z" fill="#8BFF8C"/>
</svg>
