<svg width="2811" height="3164" viewBox="0 0 2811 3164" fill="none" xmlns="http://www.w3.org/2000/svg">
<path d="M1713.3 2621.57H1177.11C1134.94 2621.57 1100.68 2583.01 1100.68 2535.55V2225.87C1100.68 2216.38 1091.72 2210.05 1084.17 2214.4L803.946 2372.21C770.565 2391 749.483 2429.36 749.483 2471.48V2933.42C749.483 2979.7 782.864 3017.27 823.974 3017.27H2064.68C2071 3017.27 2076.1 3011.53 2076.1 3004.42V2291.33C2076.1 2243.87 2041.84 2205.31 1999.68 2205.31H1736.14C1729.82 2205.31 1724.72 2211.04 1724.72 2218.16V2608.92C1724.72 2616.03 1719.63 2621.77 1713.3 2621.77V2621.57Z" fill="url(#paint0_linear_152_2)"/>
<path d="M2800.81 844.788C2799.76 836.483 2798.53 828.375 2797.12 820.069V819.476C2785.35 746.111 2766.55 675.316 2741.43 608.279C2735.1 591.47 2728.43 575.057 2721.4 558.841C2707.34 526.411 2691.71 494.771 2674.49 464.317C2665.88 449.09 2657.1 434.259 2647.79 419.625C2627.23 386.997 2604.92 355.95 2581.2 326.288C2571.71 314.62 2562.05 303.151 2551.86 291.879C2521.82 258.064 2489.67 226.622 2455.58 197.948C2438.54 183.71 2421.15 169.867 2403.23 157.014C2385.13 143.962 2366.86 131.702 2348.06 120.232C2322.94 105.005 2297.11 90.965 2270.76 78.309C2257.41 71.981 2244.06 66.0485 2230.53 60.5115C2223.68 57.743 2217 54.9745 2210.15 52.4038C2196.45 47.0645 2182.57 42.3185 2168.51 37.7703C2091.56 13.2493 2010.39 0 1926.41 0H0V2905.34C0 2942.72 18.7986 2976.93 48.4897 2993.54L351.375 3164V395.5H2031.83C2036.75 396.093 2041.84 396.686 2046.76 397.28C2253.37 449.486 2415.35 633.987 2459.62 867.134C2467.53 908.859 2471.75 952.166 2471.75 996.462C2471.75 1040.76 2467.53 1084.26 2459.62 1126.19C2415.18 1358.94 2253.37 1543.04 2047.46 1595.64C2042.54 1596.83 2037.62 1597.42 2032.53 1597.42H1100.68V1267.38C1100.68 1227.04 1129.85 1194.21 1165.69 1194.21H1659.9C1695.74 1194.21 1724.9 1227.04 1724.9 1267.38V1385.63L2040.43 1208.05C2062.4 1195.6 2076.27 1170.28 2076.27 1142.6V871.682C2076.27 831.341 2047.11 798.515 2011.27 798.515H814.312C778.471 798.515 749.307 831.341 749.307 871.682V1992.73H1926.41C2414.82 1992.73 2811 1546.6 2811 996.265C2811 944.652 2807.49 894.028 2800.81 844.59V844.788Z" fill="url(#paint1_linear_152_2)"/>
<defs>
<linearGradient id="paint0_linear_152_2" x1="-240.943" y1="2293.2" x2="2822.44" y2="2335.49" gradientUnits="userSpaceOnUse">
<stop stop-color="#6EC38D"/>
<stop offset="1" stop-color="#2598CE"/>
</linearGradient>
<linearGradient id="paint1_linear_152_2" x1="-240.943" y1="2293.2" x2="2822.44" y2="2335.49" gradientUnits="userSpaceOnUse">
<stop stop-color="#6EC38D"/>
<stop offset="1" stop-color="#2598CE"/>
</linearGradient>
</defs>
</svg>
