<svg width="111" height="111" viewBox="0 0 111 111" fill="none" xmlns="http://www.w3.org/2000/svg">
<rect x="0.921875" y="0.5" width="110" height="110" rx="55" fill="url(#paint0_linear_580_776)"/>
<g clip-path="url(#clip0_580_776)">
<path d="M56.0726 39.5898H82.0222C82.9836 39.5898 82.9851 39.5899 82.9851 40.5127C82.9851 52.5686 82.9692 64.6303 83.0024 76.6833C83.0024 78.7803 81.5913 80.0049 79.7103 80.0049C63.9026 79.9587 48.0979 79.9587 32.296 80.0049C30.347 80.0049 28.9966 78.7052 29.001 76.6833C29.0357 64.626 29.0183 52.5657 29.0183 40.5127C29.0183 39.5913 29.0183 39.5898 29.9813 39.5898H56.0726ZM40.942 54.9688C40.6109 54.9688 40.2741 54.9688 39.9386 54.9688C38.9555 54.9789 38.6374 55.2923 38.6374 56.2556C38.6374 57.9635 38.6374 59.672 38.6374 61.3809C38.6374 62.4106 38.9265 62.6879 39.9777 62.698C40.1699 62.698 40.3854 62.6431 40.556 62.711C40.7815 62.8049 41.0736 62.9464 41.1589 63.1442C41.6592 64.2996 42.1088 65.491 42.6539 66.8659C42.431 67.0079 42.2198 67.1672 42.022 67.3425C41.1647 68.1859 41.1661 68.5396 41.9975 69.3744C43.0346 70.4142 44.0737 71.4521 45.1147 72.488C46.4159 73.7791 46.4795 73.7878 47.8082 72.488C48.1176 72.1847 48.3258 72.2107 48.6757 72.384C49.4253 72.7647 50.1941 73.1065 50.9789 73.408C52.0691 73.8196 52.0778 73.7936 52.1168 74.9576C52.1428 75.749 52.4869 76.1865 53.2214 76.1966C55.1 76.2217 56.9796 76.2217 58.8601 76.1966C59.5093 76.188 59.8722 75.7894 59.9112 75.1395C59.9329 74.8045 59.8837 74.4593 59.9372 74.1286C59.957 74.0341 59.997 73.9449 60.0544 73.8671C60.1117 73.7894 60.1852 73.7249 60.2698 73.678C61.464 73.1855 62.6727 72.7263 63.9306 72.2338C64.0304 72.3263 64.1879 72.4722 64.3426 72.6209C64.4973 72.7696 64.6448 72.9314 64.8068 73.0758C65.3461 73.5625 65.8087 73.5784 66.3249 73.0758C67.6454 71.7751 68.9553 70.4638 70.2546 69.1419C70.7953 68.5902 70.791 68.131 70.2445 67.5749C69.9642 67.3134 69.6656 67.0721 69.351 66.8529C69.8816 65.5806 70.379 64.5422 70.7433 63.4518C70.937 62.8742 71.177 62.5983 71.7872 62.6965C71.955 62.7132 72.124 62.7132 72.2918 62.6965C73.0147 62.6691 73.3761 62.3471 73.3819 61.6423C73.3993 59.7649 73.3892 57.8875 73.3819 56.0101C73.3819 55.327 72.9901 54.9991 72.3467 54.9673C71.8942 54.9428 71.4387 54.9673 71.0831 54.9673C70.5047 53.5766 69.9597 52.2783 69.3785 50.8847C69.6532 50.6349 69.9886 50.359 70.2908 50.0485C70.752 49.5749 70.7708 49.0578 70.3023 48.5841C68.9664 47.2314 67.6208 45.8884 66.2656 44.5549C65.8203 44.1217 65.3114 44.1462 64.8415 44.5549C64.619 44.7391 64.4147 44.9441 64.2313 45.1672C63.9682 45.4994 63.7195 45.4777 63.3638 45.2943C62.6368 44.9224 61.8913 44.5879 61.13 44.2921C59.9864 43.8516 59.9734 43.8733 59.9184 42.6616C59.8794 41.8731 59.5324 41.5149 58.7618 41.5063C56.9304 41.4957 55.099 41.4957 53.2677 41.5063C52.5072 41.5063 52.1688 41.8543 52.1341 42.6067C52.1153 43.0328 52.1341 43.4617 52.1341 43.8097C51.1047 44.2285 50.1635 44.5809 49.2425 44.9925C48.1986 45.4604 48.2087 45.4835 47.3441 44.682C46.721 44.1043 46.228 44.0812 45.6467 44.656C44.3628 45.924 43.09 47.203 41.8283 48.4932C41.2225 49.1127 41.2297 49.5315 41.8674 50.1568C42.1268 50.3851 42.4049 50.5914 42.6987 50.7735C42.0336 52.3289 41.503 53.6113 40.942 54.9688Z" fill="white"/>
<path d="M29.062 37.5781C29.062 35.8581 28.968 34.1727 29.0895 32.5033C29.2037 30.945 30.4023 30.0034 32.0028 30.002C48.0196 30.002 64.0365 30.002 80.0533 30.002C81.6177 30.002 82.8235 30.9984 82.9261 32.5567C83.036 34.2059 82.9507 35.8667 82.9507 37.5781H29.062ZM65.5951 35.7685C65.9321 35.7881 66.2701 35.7881 66.6071 35.7685C67.171 35.7035 67.5599 35.4017 67.5787 34.8009C67.5975 34.2001 67.2071 33.8463 66.6577 33.79C65.9844 33.7297 65.3069 33.7297 64.6336 33.79C64.0697 33.8362 63.6909 34.1915 63.6952 34.785C63.6996 35.3786 64.0943 35.6934 64.6553 35.7671C64.9682 35.7879 65.2821 35.7884 65.5951 35.7685ZM71.4868 33.7727C71.127 33.7517 70.7662 33.7546 70.4068 33.7813C69.8371 33.8564 69.4742 34.2045 69.4814 34.7922C69.4776 34.9144 69.498 35.036 69.5415 35.1502C69.585 35.2644 69.6508 35.3688 69.7349 35.4574C69.8191 35.546 69.92 35.6171 70.0319 35.6666C70.1437 35.716 70.2642 35.7428 70.3865 35.7454C71.0809 35.8097 71.7798 35.8097 72.4743 35.7454C73.0367 35.6905 73.388 35.305 73.3577 34.7071C73.3288 34.141 72.95 33.855 72.4222 33.7828C72.111 33.7592 71.7985 33.7558 71.4868 33.7727ZM77.1457 35.7613C77.506 35.7854 77.8675 35.782 78.2272 35.7512C78.7838 35.666 79.1569 35.3411 79.1453 34.7403C79.1337 34.1626 78.7549 33.8362 78.2388 33.79C77.5438 33.7257 76.8445 33.7257 76.1496 33.79C76.0273 33.7952 75.9073 33.8245 75.7964 33.8762C75.6856 33.928 75.5861 34.0012 75.5037 34.0915C75.4213 34.1819 75.3576 34.2877 75.3164 34.4027C75.2751 34.5178 75.257 34.6399 75.2633 34.7619C75.2633 35.3252 75.6146 35.653 76.1308 35.7483C76.4633 35.8118 76.8089 35.7613 77.1457 35.7613Z" fill="white"/>
<path d="M55.985 68.4188C53.451 68.4204 51.0189 67.4222 49.2182 65.6414C47.4175 63.8606 46.3939 61.4414 46.3703 58.9104C46.3636 57.6386 46.6092 56.3781 47.0931 55.2017C47.577 54.0253 48.2896 52.9564 49.1895 52.0567C50.0894 51.1569 51.159 50.4443 52.3363 49.9599C53.5136 49.4755 54.7753 49.2289 56.0486 49.2345C61.3649 49.2662 65.5361 53.4731 65.617 58.792C65.698 64.1109 61.3331 68.4217 55.985 68.4188ZM62.2974 58.7645C62.095 59.0072 61.9707 59.179 61.8232 59.3278C60.9557 60.1943 60.0795 61.0608 59.2207 61.9273C58.787 62.3605 58.7161 62.8559 59.1441 63.3397C59.5388 63.7888 60.1229 63.7917 60.6058 63.3194C61.8589 62.09 63.1013 60.8494 64.3331 59.5978C64.8652 59.0534 64.8363 58.5768 64.3057 58.0309C63.6521 57.357 62.9953 56.6893 62.335 56.0278C61.7755 55.4661 61.2188 54.9014 60.6434 54.3569C60.1605 53.902 59.5605 53.8818 59.1629 54.3035C58.7219 54.7714 58.7783 55.2523 59.1961 55.7101C59.3263 55.8545 59.4651 55.9845 59.601 56.1188L62.2974 58.7645ZM49.6725 58.8628L52.2432 56.2733C52.4123 56.1029 52.5858 55.9383 52.7507 55.765C53.2278 55.2581 53.2581 54.731 52.8403 54.3107C52.4225 53.8905 51.8803 53.8775 51.3742 54.3699C50.1212 55.5927 48.8778 56.8293 47.644 58.08C47.1206 58.6129 47.1712 59.1082 47.7655 59.7076C48.9221 60.8629 50.0788 62.0158 51.2354 63.1664C51.8456 63.7686 52.4138 63.8263 52.8519 63.3541C53.2899 62.8819 53.2046 62.3562 52.6278 61.7829C51.6605 60.8196 50.6875 59.8621 49.6725 58.8628ZM54.2659 62.6927C54.4105 62.5872 54.7647 62.4385 54.9483 62.1713C56.2091 60.3286 57.4486 58.4709 58.667 56.5983C59.0515 56.0119 58.9561 55.443 58.4935 55.1325C58.0019 54.7974 57.4337 54.9519 57.0173 55.5513C56.5243 56.2618 56.0428 56.9796 55.5628 57.7002C54.8037 58.8382 54.0345 59.9719 53.3015 61.1272C52.8374 61.8594 53.2509 62.6739 54.263 62.6927H54.2659Z" fill="white"/>
</g>
<defs>
<linearGradient id="paint0_linear_580_776" x1="-8.5067" y1="80.2256" x2="111.363" y2="82.0882" gradientUnits="userSpaceOnUse">
<stop stop-color="#6EC38D"/>
<stop offset="1" stop-color="#2598CE"/>
</linearGradient>
<clipPath id="clip0_580_776">
<rect width="54" height="50" fill="white" transform="translate(29 30)"/>
</clipPath>
</defs>
</svg>
