<svg width="111" height="111" viewBox="0 0 111 111" fill="none" xmlns="http://www.w3.org/2000/svg">
<rect x="0.921875" y="0.5" width="110" height="110" rx="55" fill="url(#paint0_linear_580_739)"/>
<g clip-path="url(#clip0_580_739)">
<path d="M23 78.4646V35.5354C23.6314 33.6616 24.9202 32.4747 26.8976 32H85.1024C87.0824 32.4672 88.3582 33.6717 89 35.5354V78.4646C88.7352 79.3389 88.2339 80.1282 87.5483 80.75C86.8628 81.3718 86.0181 81.8035 85.1024 82H26.8976C24.928 81.5202 23.634 80.3359 23 78.4646ZM25.8427 42.6061V43.9419C25.8427 55.0025 25.8427 66.0649 25.8427 77.1288C25.8427 79.0657 26.0116 79.2349 27.9734 79.2349H84.1955C86.1054 79.2349 86.3756 78.9823 86.3756 77.1439C86.3756 66.08 86.3756 55.0177 86.3756 43.9571V42.6061H25.8427ZM72.817 35.2828C72.5263 35.2751 72.2369 35.3237 71.9658 35.4258C71.6946 35.5279 71.4471 35.6815 71.2376 35.8775C71.0282 36.0736 70.861 36.3082 70.7458 36.5676C70.6306 36.8271 70.5698 37.1063 70.5668 37.3889C70.5673 37.9591 70.7978 38.5064 71.2088 38.9133C71.6197 39.3203 72.1784 39.5545 72.765 39.5657C73.0555 39.5747 73.3448 39.5261 73.6153 39.423C73.8859 39.32 74.1321 39.1645 74.3389 38.9661C74.5457 38.7677 74.7089 38.5305 74.8184 38.2689C74.928 38.0073 74.9817 37.7268 74.9763 37.4445C74.9906 37.1624 74.945 36.8805 74.8424 36.6162C74.7398 36.352 74.5823 36.1111 74.3798 35.9086C74.1772 35.7061 73.9339 35.5462 73.6651 35.439C73.3962 35.3318 73.1075 35.2795 72.817 35.2854V35.2828ZM80.3342 39.5758C80.921 39.5586 81.4771 39.3172 81.8819 38.904C82.2866 38.4908 82.5073 37.9391 82.4961 37.3687C82.4895 37.0859 82.4249 36.8073 82.306 36.5491C82.1872 36.2909 82.0166 36.0584 81.8041 35.8651C81.5917 35.6718 81.3417 35.5216 81.0687 35.4233C80.7958 35.3251 80.5055 35.2808 80.2147 35.2929C79.9242 35.2932 79.6368 35.351 79.37 35.4628C79.1033 35.5746 78.8627 35.738 78.6631 35.9431C78.4634 36.1482 78.3089 36.3907 78.2089 36.6558C78.1089 36.9209 78.0655 37.203 78.0814 37.4849C78.0836 37.7669 78.1442 38.0456 78.2595 38.3044C78.3749 38.5632 78.5427 38.7967 78.753 38.9911C78.9632 39.1855 79.2115 39.3368 79.4832 39.4359C79.7549 39.5351 80.0443 39.5801 80.3342 39.5682V39.5758ZM65.2946 39.5758C65.5858 39.5811 65.8752 39.53 66.1458 39.4252C66.4164 39.3204 66.6628 39.1642 66.8704 38.9657C67.0781 38.7672 67.2428 38.5304 67.3551 38.2692C67.4673 38.0079 67.5248 37.7275 67.524 37.4445C67.5303 37.1617 67.478 36.8807 67.3701 36.618C67.2622 36.3554 67.101 36.1165 66.8961 35.9157C66.6912 35.715 66.4468 35.5564 66.1774 35.4493C65.9081 35.3423 65.6193 35.2891 65.3283 35.2929C64.7436 35.2854 64.1793 35.5014 63.7569 35.8944C63.3346 36.2874 63.088 36.8259 63.0703 37.394C63.0789 37.9658 63.3157 38.5121 63.7306 38.9177C64.1455 39.3233 64.7062 39.5565 65.2946 39.5682V39.5758Z" fill="white"/>
<path d="M29.8105 67.512V46.209H81.6128V67.512H29.8105ZM55.4726 52.2645C55.4726 54.9186 55.3245 57.4413 55.5194 59.9388C55.6831 62.0196 57.2343 63.1939 59.3858 63.2999C60.0781 63.3418 60.7723 63.3418 61.4646 63.2999C63.2523 63.1711 64.723 62.2469 64.9699 60.608C65.383 57.863 65.331 55.0524 65.4739 52.2923H62.057C62.057 52.8605 62.057 53.3555 62.057 53.8529C62.057 55.661 62.057 57.4716 62.0154 59.2772C61.9868 60.2191 61.3892 60.7494 60.4278 60.7722C59.4664 60.7949 58.7856 60.3025 58.6089 59.3302C58.569 58.9536 58.5603 58.5744 58.5829 58.1964C58.5829 56.2342 58.5829 54.2721 58.5829 52.2645H55.4726ZM33.3678 52.2645C33.5003 55.0221 33.4925 57.7444 33.8069 60.4287C33.9966 62.055 35.4855 63.1029 37.1849 63.2595C38.0031 63.3314 38.8258 63.3416 39.6456 63.2898C41.3787 63.1888 42.982 62.1459 43.1924 60.4868C43.5328 57.7721 43.4991 55.0146 43.6212 52.2873H40.2432C40.2432 52.9009 40.2432 53.4388 40.2432 53.9767C40.2432 55.7443 40.2432 57.512 40.1912 59.2797C40.1601 60.214 39.5624 60.7393 38.6036 60.7797C37.6448 60.8201 37.0446 60.3479 36.8003 59.4666C36.7373 59.0936 36.7198 58.7147 36.7483 58.3378C36.7483 56.3353 36.7483 54.3327 36.7483 52.2772L33.3678 52.2645ZM72.2402 55.6913C71.4451 54.3201 71.1047 53.0019 70.2446 52.4565C69.4287 51.9514 68.0724 52.2368 66.6796 52.161C67.5917 53.6332 68.2387 54.8732 69.0728 55.9767C69.9068 57.0802 69.8783 57.8933 69.0728 58.9716C68.1243 60.2342 67.3916 61.6282 66.5913 62.9211C69.8549 64.1434 70.9748 62.0903 72.048 59.4767C73.1627 62.113 74.3865 64.1761 77.5982 62.9312C76.7121 61.5145 75.8884 60.0423 74.9088 58.6787C74.2878 57.8176 74.3294 57.1812 74.9088 56.3378C75.7949 55.0752 76.5302 53.704 77.3046 52.4186C74.332 51.411 73.0068 52.9565 72.2428 55.6989L72.2402 55.6913ZM48.9298 52.2923H45.8428V63.1231H48.9298V52.2923ZM51.7309 63.2999C52.5961 59.56 53.4484 55.8706 54.3007 52.1737C53.2613 51.8479 52.7728 52.0398 52.6039 53.0146C52.3701 54.3732 51.9751 55.7065 51.6633 57.055C51.1904 59.1156 50.7305 61.1787 50.2498 63.2999H51.7309Z" fill="white"/>
<path d="M69.689 72.137C73.0202 72.137 76.3522 72.137 79.6851 72.137C81.1168 72.137 81.9665 72.8541 81.9354 73.993C81.9068 75.0663 81.0753 75.7304 79.6929 75.7304C72.937 75.7304 66.1811 75.7304 59.4252 75.7304C57.8999 75.7304 57.1984 75.1143 57.2347 73.8744C57.2685 72.6824 57.9311 72.1421 59.4174 72.137C62.8499 72.132 66.2695 72.137 69.689 72.137Z" fill="white"/>
<path d="M40.8196 75.7377C37.7509 75.7377 34.6822 75.7377 31.6108 75.7377C30.1271 75.7377 29.3372 75.0836 29.3528 73.922C29.3684 72.7604 30.1323 72.1543 31.6472 72.1543C37.828 72.1543 44.0105 72.1543 50.1947 72.1543C51.733 72.1543 52.4294 72.7326 52.4294 73.97C52.4294 75.2074 51.7174 75.7377 50.1584 75.7377C47.0455 75.7427 43.9325 75.7377 40.8196 75.7377Z" fill="white"/>
</g>
<defs>
<linearGradient id="paint0_linear_580_739" x1="-8.5067" y1="80.2256" x2="111.363" y2="82.0882" gradientUnits="userSpaceOnUse">
<stop stop-color="#6EC38D"/>
<stop offset="1" stop-color="#2598CE"/>
</linearGradient>
<clipPath id="clip0_580_739">
<rect width="66" height="50" fill="white" transform="translate(23 32)"/>
</clipPath>
</defs>
</svg>
