<svg width="111" height="111" viewBox="0 0 111 111" fill="none" xmlns="http://www.w3.org/2000/svg">
<rect x="0.921875" y="0.5" width="110" height="110" rx="55" fill="url(#paint0_linear_580_806)"/>
<path d="M56.9391 31.6777C62.1322 41.061 67.1701 50.1732 72.3876 59.5969C66.2637 59.9328 60.5236 60.0703 54.8325 60.6449C51.9747 60.9281 50.5376 59.9611 49.4394 57.4888C48.2636 54.8507 46.6591 52.3946 45.3241 49.8212C45.0588 49.3154 44.8587 48.4252 45.1241 48.057C48.925 42.6755 52.8279 37.3385 56.9391 31.6777Z" fill="white"/>
<path d="M50.4395 62.359C49.8323 62.5197 49.2386 62.7266 48.6636 62.9781C46.3814 64.192 44.2095 65.6122 41.8375 66.5631C40.3637 67.1498 38.6 67.1296 36.967 67.1417C36.4852 67.1417 35.8606 66.4053 35.5421 65.8671C34.2071 63.6093 32.9538 61.2989 31.6841 58.9885C31.0268 57.7948 31.1656 56.7954 32.4679 56.1116C32.766 55.9578 33.2314 55.8324 33.309 55.5937C34.6195 51.7093 38.8205 51.7416 41.4741 49.7104C41.8252 49.4434 43.2092 49.7913 43.4705 50.2324C45.5608 53.7688 47.5001 57.3943 49.4801 60.9954C49.5589 61.1792 49.6191 61.3704 49.6597 61.566L50.4395 62.359Z" fill="white"/>
<path d="M60.1232 26C60.4661 26.2832 61.3276 26.6798 61.6991 27.3474C67.3902 37.5318 73.0119 47.7527 78.6622 57.9614C79.4298 59.3493 79.1277 60.4782 77.7477 61.1741C76.3678 61.8701 75.2982 61.2996 74.5592 59.9602C69.9323 51.5791 65.2972 43.202 60.6539 34.8289C59.6741 33.0567 58.6126 31.3208 57.7185 29.5162C56.8245 27.7116 57.7879 26.089 60.1232 26Z" fill="white"/>
<path d="M42.8008 68.0934L47.4019 65.6211C50.1045 69.2627 52.6643 72.783 55.318 76.2385C56.1345 77.3067 56.1019 78.0229 54.9098 78.6662C54.8485 78.6986 54.7873 78.7229 54.7301 78.7593C50.2025 81.5917 50.1903 81.5917 47.6019 77.0234C46.0709 74.3205 44.5849 71.5974 43.0825 68.8783C42.9734 68.6223 42.8793 68.3602 42.8008 68.0934Z" fill="white"/>
<path d="M69.7373 38.2918C71.8807 38.0612 73.2198 38.9594 74.1751 40.4525C75.2447 42.1276 75.2284 43.8473 73.975 45.9028L69.7373 38.2918Z" fill="white"/>
<defs>
<linearGradient id="paint0_linear_580_806" x1="-8.5067" y1="80.2256" x2="111.363" y2="82.0882" gradientUnits="userSpaceOnUse">
<stop stop-color="#6EC38D"/>
<stop offset="1" stop-color="#2598CE"/>
</linearGradient>
</defs>
</svg>
