<svg width="111" height="111" viewBox="0 0 111 111" fill="none" xmlns="http://www.w3.org/2000/svg">
<rect x="0.921875" y="0.5" width="110" height="110" rx="55" fill="url(#paint0_linear_580_790)"/>
<g clip-path="url(#clip0_580_790)">
<path d="M30.0781 36.147V74.8516H62.7041V36.147H30.0781ZM46.4226 51.0698H45.8499C42.578 51.0698 39.306 51.0851 36.036 51.0431C35.7229 51.0431 35.4156 50.6765 35.1044 50.4799C35.3963 50.2521 35.6996 50.0392 36.0131 49.8421C36.1314 49.7715 36.3242 49.8288 36.4827 49.8288H56.3969C56.6489 49.8288 56.9524 49.7677 57.1433 49.8822C57.3933 50.0289 57.5751 50.2684 57.6492 50.5486C57.6702 50.6879 57.317 50.9495 57.0765 51.0412C56.836 51.1328 56.5764 51.0679 56.3129 51.0679L46.4226 51.0698ZM54.885 64.7191C55.6486 64.7191 56.4122 64.7382 57.1758 64.7191C57.9394 64.7001 58.2906 64.9979 58.2792 65.7826C58.2537 67.31 58.2537 68.8374 58.2792 70.3648C58.2925 71.0865 57.9985 71.4455 57.2827 71.4474C55.6932 71.4474 54.1024 71.4474 52.5103 71.4474C51.8975 71.4474 51.5558 71.1533 51.5558 70.5233C51.5558 68.9004 51.5558 67.2775 51.5558 65.6566C51.5558 64.9864 51.9204 64.702 52.5943 64.7191C53.3559 64.7401 54.1214 64.7191 54.885 64.7191ZM54.885 46.2852C54.1214 46.2852 53.3579 46.2604 52.5943 46.2852C51.8307 46.31 51.5463 45.9568 51.5443 45.2599C51.5443 43.702 51.5443 42.1421 51.5443 40.5841C51.5443 39.9331 51.8192 39.557 52.4988 39.557C54.089 39.557 55.6791 39.557 57.2712 39.557C57.9069 39.557 58.2772 39.83 58.2677 40.5383C58.2486 42.1287 58.2562 43.7192 58.2677 45.3115C58.2677 45.9969 57.9413 46.2929 57.2693 46.2814C56.4809 46.2757 55.6849 46.2757 54.8888 46.2757L54.885 46.2852ZM49.7194 68.0069C49.7194 68.8336 49.6984 69.6603 49.7194 70.4889C49.7423 71.14 49.4368 71.4436 48.8203 71.4436C47.2015 71.4525 45.5814 71.4525 43.9601 71.4436C43.3473 71.4436 43.0571 71.1362 43.0686 70.4889C43.0972 68.868 43.0877 67.2432 43.0686 65.628C43.0686 65.0284 43.3377 64.7382 43.92 64.7363C45.5712 64.7363 47.2244 64.7363 48.8833 64.7363C49.4922 64.7363 49.7251 65.0628 49.7156 65.6413C49.7137 66.4184 49.7232 67.2145 49.7232 68.0069H49.7194ZM41.2742 58.3689C41.2742 59.1632 41.2608 59.9574 41.2742 60.7517C41.2894 61.4371 40.9668 61.7407 40.2949 61.7369C38.7047 61.7369 37.1165 61.7273 35.5225 61.7369C34.8811 61.7369 34.589 61.4371 34.5909 60.8108C34.5909 59.1905 34.5909 57.5696 34.5909 55.948C34.5909 55.3255 34.8753 55.0048 35.511 55.0067C37.1005 55.0067 38.6913 55.0067 40.2834 55.0067C41.0088 55.0067 41.3085 55.3619 41.2799 56.0797C41.2551 56.8415 41.278 57.6052 41.278 58.3689H41.2742ZM49.7194 42.9478C49.7194 43.7421 49.706 44.5363 49.7194 45.3306C49.7328 45.9492 49.498 46.2852 48.8375 46.2852C47.2167 46.2852 45.5922 46.2852 43.9753 46.2852C43.3435 46.2852 43.0667 45.9874 43.0743 45.344C43.0934 43.7249 43.0934 42.1045 43.0743 40.4829C43.0743 39.8739 43.353 39.5818 43.9162 39.576C45.5706 39.5582 47.225 39.5582 48.8794 39.576C49.4521 39.576 49.7461 39.8663 49.7289 40.4753C49.7041 41.2944 49.7232 42.1211 49.7232 42.9478H49.7194ZM49.7194 58.4128C49.7194 59.2071 49.7041 60.0013 49.7194 60.7937C49.7347 61.4295 49.4578 61.7483 48.8183 61.7388C47.1976 61.7388 45.5731 61.7388 43.9581 61.7388C43.3969 61.7388 43.0705 61.4963 43.0762 60.8758C43.0896 59.2243 43.0934 57.5728 43.0762 55.9213C43.0762 55.3103 43.3702 55.0296 43.9295 55.0239C45.5839 55.0086 47.2384 55.0086 48.8928 55.0239C49.475 55.0239 49.7423 55.3466 49.727 55.9385C49.7079 56.7556 49.7232 57.5823 49.7232 58.409L49.7194 58.4128ZM37.9029 64.7134C38.6665 64.7134 39.4301 64.7325 40.1937 64.7134C40.9573 64.6943 41.2971 65.0017 41.2837 65.7826C41.2589 67.31 41.2551 68.8374 41.2837 70.3648C41.299 71.0903 41.005 71.4455 40.293 71.4474C38.7047 71.4474 37.1139 71.4474 35.5206 71.4474C34.9059 71.4474 34.5833 71.1552 34.5871 70.5137C34.5871 68.8947 34.5871 67.268 34.5871 65.6528C34.5871 64.9673 34.9326 64.6981 35.6065 64.7191C36.3815 64.7401 37.1451 64.7191 37.9068 64.7191L37.9029 64.7134ZM37.9659 46.2795C37.1718 46.2795 36.3777 46.2566 35.5836 46.2795C34.8887 46.3043 34.5928 45.9835 34.5947 45.3249C34.5947 43.7058 34.5947 42.0855 34.5947 40.4639C34.5947 39.8758 34.8868 39.5704 35.4633 39.5684C37.1145 39.5684 38.7677 39.5551 40.4266 39.5684C40.984 39.5684 41.2894 39.872 41.2856 40.4772C41.2703 42.0982 41.2856 43.723 41.2856 45.3382C41.2856 45.9702 40.9897 46.2776 40.3598 46.2757C39.5599 46.2757 38.7658 46.2757 37.9697 46.2757L37.9659 46.2795Z" fill="white"/>
<path d="M46.2948 76.1048C41.2399 76.1048 36.1773 76.122 31.13 76.0857C30.2576 76.0857 29.9484 76.3244 30.0056 77.2122C30.0782 78.3196 30.0056 79.4365 30.0305 80.5496C30.0839 82.9953 31.9394 84.958 34.3638 84.9714C42.4081 85.0121 50.4518 85.0121 58.4949 84.9714C60.904 84.958 62.7309 83.0106 62.7691 80.6145C62.7882 79.4384 62.7252 78.2585 62.792 77.0862C62.8397 76.2538 62.5018 76.0876 61.7459 76.0914C56.5955 76.1162 51.4451 76.1048 46.2948 76.1048ZM46.3788 79.9825C47.2989 79.9825 48.2209 79.931 49.1334 80.0092C49.4522 80.0379 49.7424 80.3911 50.0459 80.582C49.7691 80.7882 49.4999 81.1663 49.2193 81.1739C47.3511 81.2274 45.4822 81.2274 43.6127 81.1739C43.3435 81.1739 43.0858 80.7825 42.8224 80.5725C43.0896 80.372 43.3435 80.0245 43.6241 79.9997C44.5347 79.9367 45.4606 79.9825 46.3788 79.9825Z" fill="white"/>
<path d="M46.3868 34.9006H61.5515C62.7752 34.9006 62.7752 34.9006 62.7752 33.6386C62.7752 32.6839 62.7752 31.7293 62.7752 30.7747C62.7599 27.8478 60.9655 26.0206 58.0219 26.0015C52.904 25.9805 47.7841 26.0015 42.6662 26.0015C40.0605 26.0015 37.4529 25.9862 34.8395 26.0015C31.8711 26.0225 30.0289 27.8783 30.0175 30.8243C30.0175 31.8419 30.0614 32.8615 30.0022 33.8791C29.9545 34.6734 30.2351 34.9139 31.0254 34.9101C36.151 34.8853 41.2689 34.9006 46.3868 34.9006ZM46.4822 31.0229C45.5277 31.0229 44.5733 31.0668 43.6322 30.9942C43.3515 30.9732 43.0938 30.6296 42.8247 30.4329C43.0843 30.221 43.3401 29.8315 43.6054 29.8239C45.4724 29.7704 47.3413 29.7704 49.212 29.8239C49.4946 29.8239 49.7675 30.2057 50.0463 30.41C49.7446 30.6143 49.4583 30.9675 49.1414 30.9961C48.2614 31.0763 47.3699 31.0229 46.4822 31.0229Z" fill="white"/>
<path d="M76.2231 65.833C76.015 64.6092 75.8565 63.6698 75.6962 62.7324C75.5358 61.7949 75.9997 61.3959 76.9179 61.625C77.7502 61.8255 78.5882 62.0068 79.411 62.2493C80.0791 62.4402 80.5106 62.2742 80.7721 61.6117C81.0508 60.9027 81.3556 60.2026 81.6865 59.5115C81.9595 58.9387 81.8087 58.5396 81.3219 58.2017C80.5583 57.6766 79.7947 57.1573 79.0579 56.6113C78.3573 56.0977 78.3955 55.4275 79.1438 54.9674C79.8921 54.5073 80.6709 54.0548 81.4345 53.6061C81.99 53.2815 82.1351 52.8653 81.8774 52.2467C80.4018 48.6879 81.2723 49.2625 77.609 49.8468C77.3899 49.8871 77.1688 49.9151 76.9466 49.9308C76.1983 49.9575 75.8146 49.5222 75.9921 48.7852C76.183 47.9203 76.4426 47.0669 76.6698 46.2077C76.8606 45.5223 76.6583 45.0411 75.9539 44.7758C75.2495 44.5104 74.6043 44.2182 73.938 43.9166C73.3844 43.6646 72.9607 43.7906 72.6189 44.2851C72.0959 45.0488 71.5766 45.8125 71.0364 46.5514C70.4962 47.2903 69.8796 47.254 69.41 46.4884C68.9404 45.7228 68.488 44.961 68.0508 44.1973C67.7301 43.6245 67.2872 43.4603 66.6974 43.7123C66.6382 43.7371 66.5809 43.7619 66.5198 43.7849C64.021 44.6898 64.021 44.6899 64.021 47.3342C64.021 53.3484 64.0363 59.3625 64 65.3748C64 66.1385 64.2558 66.4994 64.9411 66.7762C67.083 67.6449 66.7852 67.7728 68.1138 65.875C68.425 65.4321 68.7209 64.9796 69.0473 64.55C69.5169 63.9352 70.1545 63.9524 70.5592 64.5996C71.0307 65.3538 71.4869 66.127 71.9203 66.8907C72.2734 67.5227 72.7239 67.7346 73.415 67.4273C74.106 67.1199 74.799 66.9385 75.4404 66.5986C75.7878 66.4249 76.0322 66.0258 76.2231 65.833ZM66.1858 55.6127C66.1776 54.9517 66.3015 54.2957 66.5503 53.6832C66.7991 53.0707 67.1677 52.514 67.6344 52.046C68.1012 51.5779 68.6568 51.2078 69.2685 50.9573C69.8802 50.7069 70.5358 50.5812 71.1968 50.5876C72.5161 50.6025 73.7772 51.1333 74.7102 52.0664C75.6431 52.9995 76.1738 54.2607 76.1887 55.5803C76.2135 58.3163 73.8979 60.6131 71.13 60.6074C70.4764 60.6061 69.8295 60.4758 69.2264 60.2239C68.6234 59.9719 68.076 59.6033 67.6157 59.1393C67.1554 58.6752 66.7914 58.1248 66.5443 57.5196C66.2973 56.9144 66.1722 56.2664 66.1762 55.6127H66.1858Z" fill="white"/>
<path d="M57.0331 68.0424C57.0331 70.2266 57.0331 70.2266 54.8302 70.2266C52.7647 70.2266 52.7646 70.2266 52.7646 68.176C52.7646 65.9632 52.7646 65.9632 54.9351 65.9632C57.0331 65.9594 57.0331 65.9594 57.0331 68.0424Z" fill="black"/>
<path d="M57.033 68.0424C57.033 65.9632 57.033 65.9632 54.9332 65.9632C52.7627 65.9632 52.7627 65.9632 52.7627 68.176C52.7627 70.2266 52.7627 70.2266 54.8282 70.2266C57.033 70.2227 57.033 70.2228 57.033 68.0424Z" fill="white"/>
<path d="M54.9676 40.7815C52.7647 40.7815 52.7646 40.7815 52.7646 42.9791C52.7646 45.0449 52.7647 45.0449 54.7977 45.0449C57.0331 45.0449 57.0331 45.0449 57.0331 42.8187C57.0331 40.7815 57.0331 40.7815 54.9676 40.7815Z" fill="white"/>
<path d="M44.3289 65.9624C44.3289 67.2779 44.2965 68.4444 44.3576 69.6129C44.3576 69.8229 44.7394 70.1742 44.9646 70.1857C45.9454 70.2506 46.9294 70.2506 47.9101 70.1857C48.0546 70.1455 48.1865 70.0692 48.2933 69.964C48.4002 69.8588 48.4785 69.7281 48.521 69.5843C48.5821 68.572 48.5821 67.557 48.521 66.5447C48.485 66.4133 48.4162 66.2932 48.321 66.1956C48.2258 66.0981 48.1074 66.0264 47.9769 65.9872C46.8144 65.9414 45.6461 65.9624 44.3289 65.9624Z" fill="white"/>
<path d="M40.041 58.377C40.041 56.231 40.041 56.231 37.901 56.231C35.7611 56.231 35.7764 56.231 35.7764 58.3179C35.7764 60.5059 35.7764 60.5059 37.985 60.5059C40.041 60.5059 40.041 60.5058 40.041 58.377Z" fill="white"/>
<path d="M44.3289 45.0419C45.6385 45.0419 46.8106 45.0686 47.9712 45.0171C48.1024 44.98 48.222 44.9101 48.3185 44.8138C48.4151 44.7176 48.4854 44.5983 48.5229 44.4672C48.584 43.455 48.584 42.44 48.5229 41.4277C48.483 41.2833 48.4067 41.1515 48.3015 41.0449C48.1962 40.9383 48.0654 40.8604 47.9216 40.8186C46.9089 40.7556 45.8933 40.7556 44.8806 40.8186C44.6897 40.8282 44.3633 41.1775 44.3557 41.3914C44.3022 42.5484 44.3289 43.7188 44.3289 45.0419Z" fill="white"/>
<path d="M44.376 56.2396V60.4934C45.6493 60.4934 46.8767 60.5145 48.1022 60.4667C48.2588 60.4667 48.5203 60.0849 48.5299 59.8844C48.5738 58.8706 48.5795 57.851 48.5299 56.8391C48.5184 56.6291 48.1862 56.2664 47.9896 56.2664C46.8252 56.2053 45.6454 56.2396 44.376 56.2396Z" fill="white"/>
<path d="M37.9507 65.9593C35.7764 65.9593 35.7764 65.9593 35.7764 68.0996C35.7764 70.2399 35.7764 70.2227 37.8896 70.2227C40.041 70.2227 40.041 70.2227 40.041 68.0633C40.041 65.9593 40.041 65.9593 37.9507 65.9593Z" fill="white"/>
<path d="M37.9316 40.7815C35.7764 40.7815 35.7764 40.7815 35.7764 42.96C35.7764 45.0449 35.7764 45.0449 37.9087 45.0449C40.041 45.0449 40.041 45.0449 40.041 42.8874C40.041 40.7815 40.041 40.7815 37.9316 40.7815Z" fill="white"/>
</g>
<defs>
<linearGradient id="paint0_linear_580_790" x1="-8.5067" y1="80.2256" x2="111.363" y2="82.0882" gradientUnits="userSpaceOnUse">
<stop stop-color="#6EC38D"/>
<stop offset="1" stop-color="#2598CE"/>
</linearGradient>
<clipPath id="clip0_580_790">
<rect width="52" height="59" fill="white" transform="matrix(1 0 0 -1 30 85)"/>
</clipPath>
</defs>
</svg>
